<svg width="81" height="85" viewBox="0 0 81 85" fill="none" xmlns="http://www.w3.org/2000/svg">
<rect x="12.4" y="75" width="9" height="9" fill="#B74579"/>
<rect x="35.3" y="73" width="9" height="9" fill="#B74579"/>
<rect x="35" y="3" width="9" height="9" fill="#B74579"/>
<rect x="0.299988" y="67" width="9" height="9" fill="#B74579"/>
<rect x="71.1" y="8" width="9" height="9" fill="#B74579"/>
<rect x="59" width="9" height="9" fill="#B74579"/>
<rect x="58.6" y="76" width="9" height="9" fill="#B74579"/>
<rect x="70.4" y="68" width="9" height="9" fill="#B74579"/>
<rect y="8" width="9" height="9" fill="#B74579"/>
<rect x="11.8" width="9" height="9" fill="#B74579"/>
<path d="M38.5938 13.5531V21.0467C39.5036 20.7258 40.4964 20.7258 41.4062 21.0467V13.5531C40.4979 13.8821 39.5021 13.8821 38.5938 13.5531Z" fill="#B74579"/>
<path d="M61.7969 34.8C62.5426 34.7992 63.2575 34.5039 63.7848 33.979C64.3121 33.454 64.6086 32.7423 64.6094 32V10.7532C63.701 11.0822 62.7053 11.0822 61.7969 10.7532V32H59.4365C59.5999 32.4489 59.6848 32.9224 59.6875 33.4V34.8H61.7969Z" fill="#B74579"/>
<path d="M56.1423 32.1708L40.6736 23.7708C40.4669 23.6588 40.2353 23.6001 40 23.6001C39.7647 23.6001 39.5331 23.6588 39.3264 23.7708L23.8577 32.1708C23.6359 32.2913 23.4508 32.469 23.3219 32.6853C23.193 32.9016 23.125 33.1484 23.125 33.3999V50.1999C23.125 50.4514 23.193 50.6983 23.322 50.9146C23.4509 51.1308 23.6359 51.3086 23.8577 51.429L39.3264 59.829C39.5331 59.9412 39.7646 59.9999 40 59.9999C40.2354 59.9999 40.4669 59.9412 40.6736 59.829L56.1423 51.429C56.3641 51.3086 56.5491 51.1308 56.6781 50.9146C56.807 50.6983 56.875 50.4514 56.875 50.1999V33.3999C56.875 33.1484 56.807 32.9016 56.6781 32.6853C56.5492 32.469 56.3641 32.2913 56.1423 32.1708ZM37.8707 33.9239L32.2656 37.0237V42.4999C32.2656 42.8712 32.1175 43.2273 31.8537 43.4899C31.59 43.7524 31.2323 43.8999 30.8594 43.8999C30.4864 43.8999 30.1287 43.7524 29.865 43.4899C29.6013 43.2273 29.4531 42.8712 29.4531 42.4999V36.1999C29.4531 35.9503 29.5201 35.7051 29.6472 35.4899C29.7744 35.2747 29.957 35.0973 30.1762 34.976L36.5043 31.476C36.8304 31.2956 37.215 31.2515 37.5737 31.3535C37.9324 31.4555 38.2357 31.6951 38.4169 32.0198C38.5981 32.3444 38.6424 32.7274 38.5399 33.0845C38.4375 33.4416 38.1968 33.7435 37.8707 33.9239Z" fill="#B74579"/>
<path d="M16.7969 11C16.3174 10.9979 15.8419 10.9144 15.3906 10.7532V32C15.3914 32.7423 15.688 33.454 16.2153 33.979C16.7425 34.5039 17.4574 34.7992 18.2031 34.8H20.3125V33.4C20.3153 32.9224 20.4002 32.4489 20.5636 32H18.2031V10.7532C17.7519 10.9144 17.2763 10.9979 16.7969 11Z" fill="#B74579"/>
<path d="M6.25 36.1999V19.1531C5.34163 19.4821 4.34587 19.4821 3.4375 19.1531V36.1999C3.43872 37.3134 3.88359 38.381 4.67449 39.1684C5.4654 39.9557 6.53774 40.3986 7.65625 40.3999H20.3125V37.5999H7.65625C7.28342 37.5994 6.92598 37.4518 6.66235 37.1893C6.39872 36.9269 6.25043 36.571 6.25 36.1999Z" fill="#B74579"/>
<path d="M76.5625 19.1531C75.6541 19.4821 74.6584 19.4821 73.75 19.1531V36.1999C73.7496 36.571 73.6013 36.9269 73.3376 37.1893C73.074 37.4518 72.7166 37.5994 72.3438 37.5999H59.6875V40.3999H72.3438C73.4623 40.3986 74.5346 39.9557 75.3255 39.1684C76.1164 38.381 76.5613 37.3134 76.5625 36.1999V19.1531Z" fill="#B74579"/>
<path d="M75.1562 64.2C75.6357 64.202 76.1113 64.2855 76.5625 64.4467V47.4C76.5613 46.2864 76.1164 45.2188 75.3255 44.4314C74.5346 43.6441 73.4623 43.2012 72.3438 43.2H59.6875V46H72.3438C72.7166 46.0004 73.074 46.1481 73.3376 46.4105C73.6012 46.673 73.7495 47.0288 73.75 47.4V64.4467C74.2012 64.2855 74.6768 64.202 75.1562 64.2Z" fill="#B74579"/>
<path d="M20.3125 43.2H7.65625C6.53774 43.2012 5.4654 43.6441 4.67449 44.4314C3.88359 45.2188 3.43872 46.2864 3.4375 47.4V64.4467C4.34587 64.1177 5.34163 64.1177 6.25 64.4467V47.4C6.25049 47.0288 6.3988 46.673 6.66242 46.4105C6.92604 46.1481 7.28344 46.0004 7.65625 46H20.3125V43.2Z" fill="#B74579"/>
<path d="M63.2031 72.5999C63.6825 72.602 64.1581 72.6854 64.6093 72.8467V51.5999C64.6086 50.8575 64.312 50.1458 63.7848 49.6208C63.2575 49.0959 62.5425 48.8007 61.7968 48.7999H59.6875V50.1999C59.6847 50.6774 59.5998 51.151 59.4364 51.5999H61.7968V72.8467C62.2481 72.6854 62.7237 72.602 63.2031 72.5999Z" fill="#B74579"/>
<path d="M41.4062 70.0468V62.5532C40.4979 62.8823 39.5021 62.8823 38.5938 62.5532V70.0468C39.5021 69.7177 40.4979 69.7177 41.4062 70.0468Z" fill="#B74579"/>
<path d="M18.2031 72.8467V51.5999H20.5636C20.4002 51.151 20.3153 50.6774 20.3125 50.1999V48.7999H18.2031C17.4574 48.8007 16.7425 49.0959 16.2152 49.6208C15.6879 50.1458 15.3914 50.8575 15.3906 51.5999V72.8467C16.299 72.5177 17.2948 72.5177 18.2031 72.8467Z" fill="#B74579"/>
</svg>
