<svg width="28" height="20" viewBox="0 0 28 20" fill="none" xmlns="http://www.w3.org/2000/svg">
<path fill-rule="evenodd" clip-rule="evenodd" d="M25.5332 0H1.6463C0.739282 0 0 0.715144 0 1.59255V18.4075C0 19.2849 0.739282 20 1.6463 20H25.5332C26.4402 20 27.1795 19.2849 27.1795 18.4075V1.59255C27.1795 0.715144 26.4402 0 25.5332 0ZM1.6463 1.5024H25.5332C25.586 1.5024 25.6264 1.54147 25.6264 1.59255V4.65745H1.55311V1.59255C1.55311 1.54147 1.5966 1.5024 1.6463 1.5024ZM1.6463 18.4976H25.5332C25.5829 18.4976 25.6264 18.4585 25.6264 18.4075V5.55889H1.55311V18.4075C1.55311 18.4585 1.59349 18.4976 1.6463 18.4976Z" fill="#333333"/>
<path d="M3.58997 3.0774C3.87366 3.0774 4.10279 2.84827 4.10279 2.56458C4.10279 2.28089 3.87366 2.05176 3.58997 2.05176C3.30628 2.05176 3.07715 2.28089 3.07715 2.56458C3.07715 2.84827 3.30628 3.0774 3.58997 3.0774Z" fill="#333333"/>
<path d="M6.15393 3.0774C6.43716 3.0774 6.66675 2.8478 6.66675 2.56458C6.66675 2.28136 6.43716 2.05176 6.15393 2.05176C5.87071 2.05176 5.64111 2.28136 5.64111 2.56458C5.64111 2.8478 5.87071 3.0774 6.15393 3.0774Z" fill="#333333"/>
<path d="M8.7179 3.0774C9.00112 3.0774 9.23072 2.8478 9.23072 2.56458C9.23072 2.28136 9.00112 2.05176 8.7179 2.05176C8.43468 2.05176 8.20508 2.28136 8.20508 2.56458C8.20508 2.8478 8.43468 3.0774 8.7179 3.0774Z" fill="#333333"/>
</svg>
