<svg width="89" height="83" viewBox="0 0 89 83" fill="none" xmlns="http://www.w3.org/2000/svg">
<path d="M82.375 0.300049H6.625C3.1405 0.300049 0.3125 3.12245 0.3125 6.60005V75.9C0.3125 79.3776 3.1405 82.2 6.625 82.2H82.375C85.8595 82.2 88.6875 79.3776 88.6875 75.9V6.60005C88.6875 3.12245 85.8595 0.300049 82.375 0.300049ZM63.4375 6.60005H76.0625V12.9H63.4375V6.60005ZM82.375 75.9H6.625V19.2H82.375V75.9Z" fill="#B74579"/>
<path d="M38.1875 25.5H12.9375V44.4H38.1875V25.5Z" fill="#B74579"/>
<path d="M76.0625 25.5H50.8125V44.4H76.0625V25.5Z" fill="#B74579"/>
<path d="M38.1875 50.7001H12.9375V69.6001H38.1875V50.7001Z" fill="#B74579"/>
<path d="M76.0625 50.7001H50.8125V69.6001H76.0625V50.7001Z" fill="#B74579"/>
</svg>
