<svg width="80" height="72" viewBox="0 0 80 72" fill="none" xmlns="http://www.w3.org/2000/svg">
<path d="M65.1211 70.0568H4.00322C2.34762 70.0568 1 68.6985 1 67.0297V14.2921C1 12.6233 2.34762 11.265 4.00322 11.265H12.4447C13.1386 11.265 13.7018 11.8327 13.7018 12.5321C13.7018 13.2315 13.1386 13.7992 12.4447 13.7992H4.00322C3.73357 13.7992 3.51421 14.0203 3.51421 14.2921V67.0297C3.51421 67.3015 3.73357 67.5226 4.00322 67.5226H65.1211C65.3908 67.5226 65.6101 67.3015 65.6101 67.0297V58.525C65.6101 57.8255 66.1733 57.2579 66.8672 57.2579C67.5612 57.2579 68.1244 57.8255 68.1244 58.525V67.0297C68.1244 68.6985 66.7767 70.0568 65.1211 70.0568Z" fill="#B74579" stroke="#B74579" stroke-width="2"/>
<path d="M12.1831 25.5519H3.423C2.72908 25.5519 2.16589 24.9842 2.16589 24.2848C2.16589 23.5854 2.72908 23.0177 3.423 23.0177H12.1825C12.8764 23.0177 13.4396 23.5854 13.4396 24.2848C13.4396 24.9842 12.8771 25.5519 12.1831 25.5519Z" fill="#B74579" stroke="#B74579" stroke-width="2"/>
<path fill-rule="evenodd" clip-rule="evenodd" d="M14.1906 59.7918H75.3085C76.9641 59.7918 78.3117 58.4334 78.3117 56.7647V4.02708C78.3117 2.35832 76.9641 1 75.3085 1H14.1906C12.535 1 11.188 2.35832 11.188 4.02708V56.7647C11.188 58.4334 12.535 59.7918 14.1906 59.7918ZM13.7024 4.02714C13.7024 3.75535 13.9211 3.53424 14.1908 3.53424H75.3087C75.5783 3.53424 75.7977 3.75535 75.7977 4.02714V56.7647C75.7977 57.0365 75.5783 57.2576 75.3087 57.2576H14.1908C13.9218 57.2576 13.7024 57.0365 13.7024 56.7647V4.02714Z" fill="#B74579"/>
<path d="M75.3085 58.7918H14.1906V60.7918H75.3085V58.7918ZM77.3117 56.7647C77.3117 57.8886 76.4044 58.7918 75.3085 58.7918V60.7918C77.5238 60.7918 79.3117 58.9782 79.3117 56.7647H77.3117ZM77.3117 4.02708V56.7647H79.3117V4.02708H77.3117ZM75.3085 2C76.4044 2 77.3117 2.90313 77.3117 4.02708H79.3117C79.3117 1.81351 77.5238 0 75.3085 0V2ZM14.1906 2H75.3085V0H14.1906V2ZM12.188 4.02708C12.188 2.90286 13.095 2 14.1906 2V0C11.975 0 10.188 1.81379 10.188 4.02708H12.188ZM12.188 56.7647V4.02708H10.188V56.7647H12.188ZM14.1906 58.7918C13.095 58.7918 12.188 57.8889 12.188 56.7647H10.188C10.188 58.978 11.975 60.7918 14.1906 60.7918V58.7918ZM14.1908 2.53424C13.3597 2.53424 12.7024 3.21222 12.7024 4.02714H14.7024C14.7024 4.29848 14.4825 4.53424 14.1908 4.53424V2.53424ZM75.3087 2.53424H14.1908V4.53424H75.3087V2.53424ZM76.7977 4.02714C76.7977 3.21054 76.1381 2.53424 75.3087 2.53424V4.53424C75.0186 4.53424 74.7977 4.30016 74.7977 4.02714H76.7977ZM76.7977 56.7647V4.02714H74.7977V56.7647H76.7977ZM75.3087 58.2576C76.138 58.2576 76.7977 57.5814 76.7977 56.7647H74.7977C74.7977 56.4917 75.0186 56.2576 75.3087 56.2576V58.2576ZM14.1908 58.2576H75.3087V56.2576H14.1908V58.2576ZM12.7024 56.7647C12.7024 57.5805 13.3612 58.2576 14.1908 58.2576V56.2576C14.4823 56.2576 14.7024 56.4926 14.7024 56.7647H12.7024ZM12.7024 4.02714V56.7647H14.7024V4.02714H12.7024Z" fill="#B74579"/>
<path d="M77.0547 15.287H13.6105C12.9166 15.287 12.3534 14.7193 12.3534 14.0199C12.3534 13.3205 12.9166 12.7528 13.6105 12.7528H77.0547C77.7486 12.7528 78.3118 13.3205 78.3118 14.0199C78.3118 14.7193 77.7486 15.287 77.0547 15.287Z" fill="#B74579" stroke="#B74579" stroke-width="2"/>
<path d="M24.308 9.16028H19.6428C18.9489 9.16028 18.3857 8.59262 18.3857 7.89319C18.3857 7.19376 18.9489 6.6261 19.6428 6.6261H24.308C25.0019 6.6261 25.5651 7.19376 25.5651 7.89319C25.5651 8.59262 25.0025 9.16028 24.308 9.16028Z" fill="#B74579"/>
<path d="M34.9299 9.16028H30.2654C29.5715 9.16028 29.0083 8.59262 29.0083 7.89319C29.0083 7.19376 29.5715 6.6261 30.2654 6.6261H34.9305C35.6244 6.6261 36.1876 7.19376 36.1876 7.89319C36.1876 8.59262 35.6244 9.16028 34.9299 9.16028Z" fill="#B74579"/>
<path d="M26.8987 32.0992L34.337 35.1737L33.7924 36.795L24.7405 32.9415V31.2569L33.792 27.4025L34.3366 29.0246L26.8987 32.0992Z" fill="#B74579"/>
<path d="M36.9357 42.2916H34.9446L42.048 21.9069H43.997L36.9357 42.2916Z" fill="#B74579"/>
<path d="M44.6051 29.0252L45.1497 27.4031L54.2012 31.2575V32.9421L45.1497 36.7956L44.6051 35.1743L52.0435 32.0998L44.6051 29.0252Z" fill="#B74579"/>
<rect x="60.7411" y="20.328" width="5.27127" height="5.27127" fill="#B74579"/>
<rect x="60.7411" y="27.3563" width="5.27127" height="5.27127" fill="#B74579"/>
<rect x="60.7411" y="34.3846" width="5.27127" height="5.27127" fill="#B74579"/>
<rect x="60.7411" y="41.4131" width="5.27127" height="5.27127" fill="#B74579"/>
</svg>
