<svg width="84" height="70" viewBox="0 0 84 70" fill="none" xmlns="http://www.w3.org/2000/svg">
<g opacity="0.9">
<path fill-rule="evenodd" clip-rule="evenodd" d="M19.4045 45.0272H23.1768H23.1778V39.3615H19.411C18.6966 40.3167 17.5629 40.9443 16.276 40.9443C14.1152 40.9443 12.3571 39.1972 12.3571 37.0487C12.3571 34.8984 14.1152 33.1495 16.276 33.1495C17.5582 33.1495 18.6882 33.7734 19.4036 34.723H23.1778V30.0043H19.4091C18.6938 30.9576 17.561 31.5852 16.276 31.5852C14.992 31.5852 13.8601 30.9595 13.1448 30.0061H6.0352C4.74744 30.0061 3.70369 28.9679 3.70369 27.6859V21.5072C1.53083 20.599 0.000927779 18.4607 0.000927779 15.9753C0.000927779 12.6677 2.70633 9.9765 6.03149 9.9765C9.35665 9.9765 12.0621 12.6677 12.0621 15.9753C12.0621 18.4588 10.5349 20.5953 8.36578 21.5053V25.3686H13.1429C13.8582 24.4171 14.9901 23.7895 16.2742 23.7895C17.5573 23.7895 18.6882 24.4152 19.4036 25.3667H23.1759V21.5598C23.1759 20.2797 24.2197 19.2415 25.5074 19.2415H29.0191V11.5288C26.8481 10.6207 25.3191 8.48234 25.3191 5.99698C25.3191 2.69116 28.0254 0 31.3506 0C34.6757 0 37.3821 2.69116 37.3821 5.99698C37.3821 8.48234 35.8531 10.6207 33.6821 11.5288V19.2415H41.0032V13.3349C40.0466 12.6234 39.4195 11.4984 39.4195 10.2201C39.4195 8.0698 41.1758 6.32091 43.3338 6.32091C45.4955 6.32091 47.2536 8.0698 47.2536 10.2201C47.2536 11.4984 46.6227 12.6243 45.6662 13.3349V19.2415H52.991V13.3349C52.0363 12.6234 51.4073 11.4984 51.4073 10.2201C51.4073 8.0698 53.1617 6.32091 55.3197 6.32091C56.6066 6.32091 57.7412 6.94848 58.4566 7.90183H65.3175C66.2304 5.74041 68.3801 4.22133 70.8786 4.22133C74.2019 4.22133 76.9073 6.91249 76.9073 10.2201C76.9073 13.5278 74.2019 16.219 70.8786 16.219C68.3801 16.219 66.2304 14.698 65.3175 12.5403H58.4566C58.2283 12.843 57.9583 13.1097 57.654 13.3368V19.2415H60.0226C61.3095 19.2415 62.3532 20.2797 62.3532 21.5598V24.3691H67.7473C68.4617 23.4176 69.5936 22.79 70.8786 22.79C73.0412 22.79 74.8003 24.5389 74.8003 26.6874C74.8003 28.8359 73.0403 30.5848 70.8786 30.5848C69.5955 30.5848 68.4645 29.959 67.7492 29.0075H62.3532V36.2901H64.0529C64.7664 35.3404 65.8973 34.7166 67.1786 34.7166C69.3394 34.7166 71.0985 36.4655 71.0985 38.6158C71.0985 40.7625 69.3385 42.5113 67.1786 42.5113C65.8918 42.5113 64.759 41.8838 64.0436 40.9286H62.3532V45.029H66.1748C66.8901 44.0775 68.0229 43.4518 69.306 43.4518C71.4677 43.4518 73.2259 45.2025 73.2259 47.3529C73.2259 48.6292 72.595 49.7552 71.6384 50.4658V57.5278C73.8076 58.4359 75.3347 60.5724 75.3347 63.0578C75.3347 66.3654 72.6312 69.0566 69.306 69.0566C65.9808 69.0566 63.2754 66.3654 63.2754 63.0578C63.2754 60.5724 64.8044 58.4341 66.9754 57.5259V50.4676C66.6693 50.2406 66.3993 49.972 66.171 49.6675H62.1371C61.5628 51.8954 59.8538 53.6765 57.654 54.3503V61.9946C58.6143 62.7062 59.2452 63.833 59.2452 65.1094C59.2452 67.2597 57.4842 69.0086 55.3207 69.0086C53.1627 69.0086 51.4082 67.2597 51.4082 65.1094C51.4082 63.833 52.0373 62.708 52.9919 61.9964V54.6437H45.6662V61.9964C46.6227 62.7062 47.2536 63.833 47.2536 65.1094C47.2536 67.2597 45.4955 69.0086 43.3338 69.0086C41.1758 69.0086 39.4195 67.2597 39.4195 65.1094C39.4195 63.833 40.0466 62.708 41.0032 61.9964V54.6437H33.6821V60.4331C34.6386 61.1428 35.2667 62.2678 35.2667 63.5441C35.2667 65.6926 33.5086 67.4415 31.3478 67.4415C29.8568 67.4415 28.5737 66.5999 27.9122 65.3761H21.6878C20.7739 67.5375 18.6252 69.0566 16.1257 69.0566C12.8006 69.0566 10.0952 66.3654 10.0952 63.0578C10.0952 59.7501 12.8006 57.059 16.1257 57.059C18.6252 57.059 20.7739 58.5799 21.6878 60.7376H28.6433C28.7611 60.6259 28.8892 60.5244 29.02 60.4275V54.6428H25.5084C24.2206 54.6428 23.1768 53.6046 23.1768 52.3227V49.6656H19.4082C18.6938 50.619 17.561 51.2466 16.2751 51.2466C14.9901 51.2466 13.8582 50.6208 13.1429 49.6675H11.5917C10.6778 51.8271 8.52907 53.3461 6.03056 53.3461C2.7054 53.3461 0 50.655 0 47.3473C0 44.0397 2.7054 41.3485 6.03056 41.3485C8.53093 41.3485 10.6797 42.8694 11.5926 45.029H13.1438C13.8592 44.0775 14.991 43.4499 16.2751 43.4499C17.5582 43.4499 18.6892 44.0757 19.4045 45.0272ZM4.6631 47.3465C4.6631 48.0968 5.27729 48.7078 6.03157 48.7078C6.78586 48.7078 7.40005 48.0968 7.40005 47.3465C7.40005 46.5962 6.78586 45.9852 6.03157 45.9852C5.27729 45.9852 4.6631 46.5962 4.6631 47.3465ZM16.1266 64.4173C15.3724 64.4173 14.7582 63.8063 14.7582 63.056C14.7582 62.3057 15.3724 61.6947 16.1266 61.6947C16.8818 61.6947 17.496 62.3057 17.496 63.056C17.496 63.8063 16.8818 64.4173 16.1266 64.4173ZM72.2458 10.2202C72.2458 9.46984 71.6335 8.85888 70.8792 8.85888C70.1231 8.85888 69.5107 9.46984 69.5107 10.2202C69.5107 10.9705 70.124 11.5814 70.8792 11.5814C71.6335 11.5814 72.2458 10.9705 72.2458 10.2202ZM31.3515 4.63768C32.1058 4.63768 32.72 5.24679 32.72 5.9971C32.72 6.74742 32.1058 7.35838 31.3515 7.35838C30.5963 7.35838 29.9821 6.74742 29.9821 5.9971C29.9821 5.24679 30.5963 4.63768 31.3515 4.63768ZM7.40005 15.9762C7.40005 15.2259 6.78586 14.6149 6.03157 14.6149C5.27729 14.6149 4.6631 15.2259 4.6631 15.9762C4.6631 16.7265 5.27729 17.3356 6.03157 17.3356C6.78586 17.3356 7.40005 16.7265 7.40005 15.9762ZM69.3062 64.4173C68.5519 64.4173 67.9377 63.8063 67.9377 63.056C67.9377 62.3057 68.5519 61.6947 69.3062 61.6947C70.0605 61.6947 70.6728 62.3057 70.6728 63.056C70.6728 63.8063 70.0605 64.4173 69.3062 64.4173ZM57.6914 23.8799H27.8401V50.0043H55.6985C56.7961 50.0043 57.6914 49.1155 57.6914 48.0247V23.8799Z" fill="#B74579"/>
<path fill-rule="evenodd" clip-rule="evenodd" d="M36.2621 28.1594H49.2649C50.5526 28.1594 51.5964 29.1977 51.5973 30.4787V43.4075C51.5973 44.6876 50.5536 45.7258 49.2649 45.7258H36.2621C34.9743 45.7258 33.9305 44.6876 33.9305 43.4075V30.4796C33.9305 29.1977 34.9743 28.1594 36.2621 28.1594ZM38.5937 41.0863H46.9345V32.7969H38.5937V41.0863Z" fill="#B74579"/>
<path fill-rule="evenodd" clip-rule="evenodd" d="M71.8915 38.6141C71.8915 35.3064 74.5969 32.6152 77.9239 32.6152C81.2472 32.6152 83.9507 35.3064 83.9507 38.6141C83.9507 41.9199 81.2472 44.611 77.9239 44.611C74.5969 44.611 71.8915 41.9199 71.8915 38.6141ZM76.5536 38.6131C76.5536 39.3634 77.1687 39.9725 77.9239 39.9725C78.6763 39.9725 79.2887 39.3634 79.2887 38.6131C79.2887 37.8609 78.6763 37.2518 77.9239 37.2518C77.1678 37.2518 76.5536 37.8618 76.5536 38.6131Z" fill="#B74579"/>
</g>
</svg>
