<svg width="104" height="77" viewBox="0 0 104 77" fill="none" xmlns="http://www.w3.org/2000/svg">
<path fill-rule="evenodd" clip-rule="evenodd" d="M46.0409 60.7465V50.7227H53.6431C58.4146 50.6412 62.8627 48.0334 65.208 43.8771C68.9282 37.3576 66.6637 29.0451 60.1938 25.2964C58.819 17.8804 52.3491 12.5017 44.8278 12.5832L42.0781 12.8277C38.2771 7.44909 32.2115 4.35229 25.6608 4.35229C14.6619 4.43379 5.76584 13.4797 5.84672 24.6444C5.84672 25.4594 5.92759 26.2743 6.00846 27.0893C3.09701 29.6971 1.47954 33.3643 1.47954 37.2761C1.47954 44.7736 7.54506 50.8042 14.9854 50.7227H22.5876V60.7465C22.5876 63.0284 20.8084 64.8212 18.5439 64.8212H17.816C16.9264 61.7244 14.5811 59.3611 11.5079 58.4647C6.65545 57.0793 1.72216 59.9316 0.347305 64.8212C-1.02755 69.7109 1.80303 74.6821 6.65545 76.0675C11.5079 77.4529 16.4412 74.6006 17.816 69.7109H18.5439C23.4772 69.7109 27.44 65.7177 27.44 60.7465V38.1725C27.44 36.7871 26.3886 35.7277 25.0138 35.7277C23.6389 35.7277 22.5876 36.7871 22.5876 38.1725V45.833H14.9854C12.1549 45.833 9.48603 44.4476 7.94943 42.1658C5.2806 38.254 6.17021 32.8754 10.0521 30.1046C10.78 29.5341 11.1844 28.5562 11.0226 27.6597C10.78 26.6818 10.6991 25.6224 10.6991 24.6444C10.6991 16.2505 17.4925 9.40496 25.8225 9.32346C31.1602 9.32346 36.1744 12.1758 38.9241 16.821C39.4902 17.7989 40.6224 18.2879 41.7546 17.9619C42.7251 17.6359 43.7765 17.4729 44.8278 17.4729C50.3273 17.3914 55.0179 21.6291 55.5032 27.1708C55.584 28.0672 56.1502 28.8822 56.9589 29.2081C60.113 30.5935 62.2157 33.6903 62.2157 37.1946C62.1348 41.9213 58.3337 45.7515 53.6431 45.833H46.0409V38.1725C46.0409 36.7871 44.9896 35.7277 43.6147 35.7277C42.2399 35.7277 41.1885 36.7871 41.1885 38.1725V60.7465C41.1885 65.7177 45.1513 69.7109 50.0846 69.7109H50.8125C51.8638 73.7856 55.5032 76.5564 59.6277 76.5564C64.6419 76.5564 68.7665 72.4002 68.7665 67.3476C68.7665 62.2949 64.6419 58.1387 59.6277 58.1387C55.5032 58.1387 51.9447 60.828 50.8125 64.8212H50.0846C47.8202 64.8212 46.0409 62.9469 46.0409 60.7465ZM59.6275 71.5854C57.2821 71.5854 55.3412 69.6295 55.3412 67.2662C55.5838 65.3103 57.1204 63.8434 58.9805 63.5989C61.3258 63.273 63.5094 64.9028 63.8329 67.2662C63.8329 69.6295 61.9728 71.5039 59.6275 71.5854ZM13.2873 68.4886C13.3682 68.0812 13.3682 67.6737 13.2873 67.2662C13.2873 64.9029 11.4272 63.0285 9.08186 63.0285C6.73652 62.947 4.87643 64.8214 4.79555 67.1847V67.2662C4.47206 69.6296 6.08953 71.8299 8.43487 72.1559C10.7802 72.4819 12.9638 70.852 13.2873 68.4886Z" fill="#B74579"/>
<path d="M34.3148 66.4512C35.6896 66.4512 36.741 65.3918 36.741 64.0064V34.9129C36.741 33.5274 35.6896 32.468 34.3148 32.468C32.9399 32.468 31.8885 33.5274 31.8885 34.9129V64.0064C31.8885 65.3103 32.9399 66.4512 34.3148 66.4512Z" fill="#B74579"/>
<rect x="92.2686" y="45.264" width="11.316" height="11.316" fill="#B74579"/>
<rect x="64.4143" y="30.4659" width="11.316" height="11.316" fill="#B74579"/>
<rect x="64.4143" y="10.4453" width="11.316" height="11.316" fill="#B74579"/>
<rect x="78.3412" y="36.5594" width="11.316" height="11.316" fill="#B74579"/>
<rect x="92.2686" width="11.316" height="11.316" fill="#B74579"/>
<rect x="78.3412" y="5.2229" width="11.316" height="11.316" fill="#B74579"/>
</svg>
