<svg width="87" height="110" viewBox="0 0 87 110" fill="none" xmlns="http://www.w3.org/2000/svg">
<g clip-path="url(#clip0)">
<path d="M5.24097 97.1723H60.921V60.2123H55.701V83.0923H10.461V17.9723H55.701V25.0123H60.921V12.6923H5.24097V97.1723ZM33.081 86.6123C34.995 86.6123 36.561 88.1963 36.561 90.1323C36.561 92.0683 34.995 93.6523 33.081 93.6523C31.167 93.6523 29.601 92.0683 29.601 90.1323C29.601 88.1963 31.167 86.6123 33.081 86.6123Z" fill="#B74579"/>
<path d="M40.041 28.5322H29.601V39.0922H40.041V28.5322Z" fill="#B74579"/>
<path d="M40.041 46.1322H29.601V56.6922H40.041V46.1322Z" fill="#B74579"/>
<path d="M55.701 28.5322H45.261V39.0922H55.701V28.5322Z" fill="#B74579"/>
<path d="M55.701 46.1322H45.261V56.6922H55.701V46.1322Z" fill="#B74579"/>
<path d="M71.361 28.5322H60.921V39.0922H71.361V28.5322Z" fill="#B74579"/>
<path d="M71.361 46.1322H60.921V56.6922H71.361V46.1322Z" fill="#B74579"/>
<path d="M87.021 28.5322H76.581V39.0922H87.021V28.5322Z" fill="#B74579"/>
<path d="M87.021 46.1322H76.581V56.6922H87.021V46.1322Z" fill="#B74579"/>
</g>
<defs>
<clipPath id="clip0">
<rect width="87" height="110" fill="white"/>
</clipPath>
</defs>
</svg>
