<svg width="1183" height="883" viewBox="0 0 1183 883" fill="none" xmlns="http://www.w3.org/2000/svg">
<circle cx="595.5" cy="69.5" r="69.5" fill="#B74579"/>
<path fill-rule="evenodd" clip-rule="evenodd" d="M629 139C667.384 139 698.5 107.884 698.5 69.5C698.5 31.1162 667.384 0 629 0H1113.41C1151.8 0 1182.91 31.1162 1182.91 69.5C1182.91 107.884 1151.8 139 1113.41 139H629C629 139 629 139 629 139Z" fill="#B74579"/>
<circle cx="587.415" cy="255.5" r="69.5" transform="rotate(-180 587.415 255.5)" fill="#B74579"/>
<path fill-rule="evenodd" clip-rule="evenodd" d="M553.915 186C515.531 186 484.415 217.116 484.415 255.5C484.415 293.884 515.531 325 553.915 325L69.5002 325C31.1163 325 6.10352e-05 293.884 6.10352e-05 255.5C6.10352e-05 217.116 31.1163 186 69.5001 186L553.915 186C553.915 186 553.915 186 553.915 186Z" fill="#B74579"/>
<circle cx="594.5" cy="441.5" r="69.5" fill="#B74579"/>
<path fill-rule="evenodd" clip-rule="evenodd" d="M628 511C666.384 511 697.5 479.884 697.5 441.5C697.5 403.116 666.384 372 628 372H1112.41C1150.8 372 1181.91 403.116 1181.91 441.5C1181.91 479.884 1150.8 511 1112.41 511H628C628 511 628 511 628 511Z" fill="#B74579"/>
<circle cx="587.415" cy="627.5" r="69.5" transform="rotate(-180 587.415 627.5)" fill="#B74579"/>
<path fill-rule="evenodd" clip-rule="evenodd" d="M553.915 558C515.531 558 484.415 589.116 484.415 627.5C484.415 665.884 515.531 697 553.915 697L69.5002 697C31.1163 697 6.10352e-05 665.884 6.10352e-05 627.5C6.10352e-05 589.116 31.1163 558 69.5001 558H553.915C553.915 558 553.915 558 553.915 558Z" fill="#B74579"/>
<circle cx="594.5" cy="813.5" r="69.5" fill="#B74579"/>
<path fill-rule="evenodd" clip-rule="evenodd" d="M628 883C666.384 883 697.5 851.884 697.5 813.5C697.5 775.116 666.384 744 628 744H1112.41C1150.8 744 1181.91 775.116 1181.91 813.5C1181.91 851.884 1150.8 883 1112.41 883H628C628 883 628 883 628 883Z" fill="#B74579"/>
</svg>
