<svg width="90" height="88" viewBox="0 0 90 88" fill="none" xmlns="http://www.w3.org/2000/svg">
<path d="M45 21.0375C49.977 21.0375 54.6869 19.9058 58.9003 17.8937C55.395 11.9063 50.6801 6.74543 45 2.88574C39.325 6.74041 34.61 11.9013 31.1072 17.8849C35.3182 19.897 40.023 21.0375 45 21.0375Z" fill="#B74579"/>
<path d="M25.969 14.814C29.2424 9.24117 33.4483 4.30257 38.4404 0.294678C31.3252 1.35851 24.7644 4.12296 19.1801 8.15849C21.1028 10.6969 23.3935 12.9351 25.969 14.814Z" fill="#B74579"/>
<path d="M18.4392 38.0375C19.0654 31.7889 20.6769 25.7614 23.1743 20.2049C19.8932 17.929 16.9788 15.1645 14.5496 12.0032C10.7872 15.5853 7.65233 19.8193 5.33771 24.5242C8.75483 29.8597 13.2165 34.4592 18.4392 38.0375Z" fill="#B74579"/>
<path d="M24.3436 48.0842C24.9471 55.4255 27.0878 62.434 30.5037 68.6211C35.1342 69.8356 39.9915 70.485 45 70.485C50.0085 70.485 54.8671 69.8344 59.495 68.6223C62.9109 62.434 65.0542 55.4255 65.6577 48.0842C59.3035 50.7758 52.3269 52.2768 45 52.2768C37.6731 52.2768 30.6965 50.7783 24.3436 48.0842Z" fill="#B74579"/>
<path d="M64.0348 14.8228C66.609 12.9438 68.8883 10.6868 70.8098 8.14967C65.228 4.12167 58.6722 1.35973 51.5583 0.295898C56.5542 4.30756 60.7626 9.24616 64.0348 14.8228Z" fill="#B74579"/>
<path d="M71.5608 38.0538C76.7835 34.4755 81.254 29.876 84.6698 24.5455C82.3615 19.8355 79.2266 15.6003 75.463 12.0144C73.0312 15.1758 70.1156 17.9427 66.8295 20.2173C69.3268 25.7764 70.9384 31.8052 71.5608 38.0538Z" fill="#B74579"/>
<path d="M61.6118 23.2494C56.5819 25.6684 50.9484 27.0362 45 27.0362C39.0528 27.0362 33.4181 25.6735 28.3881 23.2532C25.9463 28.8851 24.5086 35.0445 24.215 41.4149C30.4886 44.5147 37.537 46.2781 44.9987 46.2781C52.4604 46.2781 59.5114 44.521 65.785 41.4237C65.4952 35.0457 64.0524 28.8851 61.6118 23.2494Z" fill="#B74579"/>
<path d="M51.5583 87.3053C66.5132 85.0709 79.0275 75.3331 85.1285 62.076C78.8259 67.2633 71.5003 71.2474 63.5018 73.6978C60.3115 78.9014 56.2808 83.5172 51.5583 87.3053Z" fill="#B74579"/>
<path d="M87.2894 31.2362C83.0936 36.7613 77.8469 41.4412 71.8367 44.9731C71.6893 52.2767 70.171 59.358 67.4784 65.8528C75.71 62.3197 82.955 56.9302 88.6603 50.1905C88.9677 48.1055 89.1328 45.9703 89.1328 43.8C89.1315 39.4341 88.4801 35.2202 87.2894 31.2362Z" fill="#B74579"/>
<path d="M45 76.4824C41.6913 76.4824 38.4493 76.2023 35.2753 75.71C38.0738 79.1665 41.3296 82.2186 45 84.7142C48.6679 82.2261 51.9162 79.1765 54.7159 75.725C51.5457 76.2161 48.305 76.4824 45 76.4824Z" fill="#B74579"/>
<path d="M18.1658 44.9744C12.1518 41.4413 6.90642 36.7627 2.71062 31.2388C1.5174 35.2228 0.8685 39.4342 0.8685 43.8C0.8685 45.9679 1.03104 48.0943 1.33596 50.1767C7.0425 56.9189 14.2862 62.3172 22.5203 65.8516C19.829 59.3556 18.3132 52.2768 18.1658 44.9744Z" fill="#B74579"/>
<path d="M26.512 73.7192C18.5161 71.2763 11.1917 67.2922 4.88791 62.11C10.9964 75.3482 23.5031 85.0747 38.4417 87.3053C33.7268 83.521 29.6998 78.9178 26.512 73.7192Z" fill="#B74579"/>
</svg>
